#!OML:ASF F:\VICON\USERDATA\INSTALL\rory3\rory3.ASF
:FULLY-SPECIFIED
:DEGREES
369
root -0.91585 17.6858 39.0332 -1.42401 -2.02732 -2.50139
lowerback 5.92982 -0.0114356 1.61906
upperback 1.02639 0.158809 2.90904
thorax -2.27176 0.0749716 2.07526
lowerneck -13.5306 -2.38176 -9.915
upperneck 25.9591 -2.29872 5.14466
head 10.7652 -1.41698 3.24322
rclavicle -9.93923e-017 2.70347e-014
rhumerus -29.323 -10.7863 -76.9842
rradius 26.9337
rwrist 7.18599
rhand -14.7402 18.896
rfingers 7.12502
rthumb 11.4153 -10.7733
lclavicle -9.93923e-017 2.70347e-014
lhumerus -34.4139 6.2188 86.2581
lradius 28.6937
lwrist -13.129
lhand -16.6884 24.5421
lfingers 7.12502
lthumb 9.53605 54.3063
rfemur -9.08486 3.85466 28.019
rtibia 31.834
rfoot -17.3485 -7.13807
rtoes 5.67313
lfemur -21.3319 1.86913 -15.9487
ltibia 61.2923
lfoot -0.0460234 -4.95863
ltoes -10.4799
370
root -0.913199 17.6635 39.1993 -1.34389 -2.34721 -2.73172
lowerback 5.80805 0.135705 1.98514
upperback 1.23994 0.364464 2.89071
thorax -1.98627 0.175638 1.8342
lowerneck -13.9765 -2.51271 -10.0043
upperneck 25.8187 -2.44213 5.26228
head 10.8165 -1.46926 3.27886
rclavicle -1.44119e-015 4.13472e-014
rhumerus -28.5202 -10.1808 -77.4004
rradius 27.8443
rwrist 6.42184
rhand -14.4803 18.7634
rfingers 7.12502
rthumb 11.666 -10.8918
lclavicle -1.44119e-015 4.13472e-014
lhumerus -34.2486 6.58732 86.3706
lradius 28.2127
lwrist -13.7766
lhand -16.1501 25.0809
lfingers 7.12502
lthumb 10.0554 54.8206
rfemur -8.46537 3.47989 28.3885
rtibia 31.972
rfoot -17.5806 -7.82305
rtoes 1.65588
lfemur -22.3306 2.1169 -15.7279
ltibia 60.4528
lfoot -1.44603 -4.03622
ltoes -12.2283
371
root -0.915608 17.6308 39.3624 -1.25854 -2.66045 -3.02166
lowerback 5.76128 0.2489 2.28717
upperback 1.36032 0.526944 2.91183
thorax -1.83644 0.255917 1.67458
lowerneck -14.1037 -2.46251 -9.75968
upperneck 25.4845 -2.37034 5.10973
head 10.7052 -1.42267 3.18362
rclavicle -7.20594e-015 -7.15625e-015
rhumerus -27.8397 -9.54766 -77.778
rradius 28.628
rwrist 5.80895
rhand -14.5361 18.6276
rfingers 7.12502
rthumb 11.6121 -11.0306
lclavicle -7.20594e-015 -7.15625e-015
lhumerus -34.2622 6.81512 86.4954
lradius 27.6816
lwrist -14.1417
lhand -16.0122 25.2045
lfingers 7.12502
lthumb 10.1884 54.9378
rfemur -7.86881 3.38923 28.8407
rtibia 32.0265
rfoot -17.4718 -8.76111
rtoes 0.106453
lfemur -23.3108 2.26901 -15.3864
ltibia 59.484
lfoot -2.57825 -2.92076
ltoes -12.3608
372
root -0.91042 17.6187 39.5272 -1.09006 -2.8573 -3.39068
lowerback 5.8442 0.323394 2.7925
upperback 1.23818 0.665444 2.93238
thorax -2.00469 0.321269 1.40186
lowerneck -14.1448 -2.4203 -9.5327
upperneck 25.4751 -2.3235 4.96007
head 10.7004 -1.39624 3.09637
rclavicle -1.50579e-014 -6.36111e-015
rhumerus -27.5467 -8.56727 -78.1079
rradius 29.4484
rwrist 5.09732
rhand -14.5181 17.9327
rfingers 7.12502
rthumb 11.6295 -11.7245
lclavicle -1.50579e-014 -6.36111e-015
lhumerus -34.559 6.78475 86.6886
lradius 27.1337
lwrist -14.0963
lhand -16.1285 25.0244
lfingers 7.12502
lthumb 10.0762 54.7632
rfemur -7.31292 3.27474 29.2419
rtibia 31.9004
rfoot -17.6648 -8.95262
rtoes -0.194402
lfemur -24.2377 2.26622 -14.9878
ltibia 58.2908
lfoot -3.44584 -1.78951
ltoes -13.4991
373
root -0.898412 17.5975 39.6848 -0.877032 -3.11136 -3.53705
lowerback 6.05924 0.401002 3.0892
upperback 1.03431 0.807057 2.94031
thorax -2.33169 0.386419 1.2314
lowerneck -14.1557 -2.32388 -9.28531
upperneck 25.5949 -2.15153 4.59521
head 10.7264 -1.3388 2.9465
rclavicle -8.79622e-015 -1.11319e-014
rhumerus -27.3216 -7.43542 -78.3166
rradius 30.2636
rwrist 4.33984
rhand -14.3175 17.2101
rfingers 7.12502
rthumb 11.8229 -12.4362
lclavicle -8.79622e-015 -1.11319e-014
lhumerus -35.0646 7.17038 86.7924
lradius 26.7702
lwrist -14.5668
lhand -15.6826 25.1249
lfingers 7.12502
lthumb 10.5063 54.8423
rfemur -6.75983 3.25792 29.3791
rtibia 31.6996
rfoot -18.1885 -8.91222
rtoes -2.02784
lfemur -25.2229 2.22214 -14.8765
ltibia 56.8951
lfoot -4.15023 -0.535015
ltoes -14.1259
374
root -0.896722 17.5774 39.8452 -0.743007 -3.51953 -3.81652
lowerback 6.22371 0.553219 3.37152
upperback 0.998229 1.04001 3.00197
thorax -2.45685 0.498799 1.11689
lowerneck -14.0161 -2.30411 -9.25027
upperneck 25.4526 -2.09617 4.42216
head 10.6407 -1.329 2.88236
rclavicle 7.40473e-015 2.94201e-014
rhumerus -26.9145 -6.42986 -78.5435
rradius 31.1087
rwrist 3.55176
rhand -14.115 16.3598
rfingers 7.12502
rthumb 12.0183 -13.2751
lclavicle 7.40473e-015 2.94201e-014
lhumerus -35.4362 7.79786 86.7894
lradius 26.6165
lwrist -15.2668
lhand -15.0843 25.4761
lfingers 7.12502
lthumb 11.0834 55.1634
rfemur -6.09907 3.64188 29.7718
rtibia 31.4026
rfoot -18.5308 -8.9613
rtoes -2.83931
lfemur -26.0158 2.38518 -14.5272
ltibia 55.2606
lfoot -4.66296 0.611027
ltoes -12.786
375
root -0.903135 17.5649 40.0192 -0.722209 -3.96942 -3.99527
lowerback 6.19535 0.759779 3.5022
upperback 1.19812 1.3124 3.01256
thorax -2.23056 0.636857 1.03422
lowerneck -14.2468 -2.3468 -9.30974
upperneck 25.1391 -2.16133 4.60597
head 10.5772 -1.33439 2.9445
rclavicle 4.42296e-015 -1.59028e-014
rhumerus -26.0385 -5.91545 -78.7375
rradius 31.5681
rwrist 3.05162
rhand -14.2145 16.4306
rfingers 7.12502
rthumb 11.9223 -13.21
lclavicle 4.42296e-015 -1.59028e-014
lhumerus -35.4279 7.91093 86.9863
lradius 26.3466
lwrist -15.3945
lhand -14.8486 25.6015
lfingers 7.12502
lthumb 11.3107 55.2765
rfemur -5.32138 4.25918 30.1479
rtibia 31.1161
rfoot -18.5525 -9.42779
rtoes -3.34904
lfemur -26.3997 2.53856 -14.2287
ltibia 53.3842
lfoot -5.24174 1.71539
ltoes -11.4203
376
root -0.900518 17.5547 40.1938 -0.635143 -4.15751 -3.77553
lowerback 6.24514 0.877839 3.33984
upperback 1.14485 1.46127 2.897
thorax -2.31334 0.710665 0.992657
lowerneck -14.2553 -2.39159 -9.44685
upperneck 24.9795 -2.26711 4.90969
head 10.5325 -1.35715 3.061
rclavicle 1.64494e-014 7.15625e-015
rhumerus -25.5283 -5.45384 -78.8388
rradius 31.9583
rwrist 2.65536
rhand -14.2934 17.1732
rfingers 7.12502
rthumb 11.8462 -12.4717
lclavicle 1.64494e-014 7.15625e-015
lhumerus -35.7533 7.90462 87.1744
lradius 25.9777
lwrist -15.318
lhand -15.3513 25.6684
lfingers 7.12502
lthumb 10.8259 55.3694
rfemur -4.61358 4.36283 29.9777
rtibia 30.8569
rfoot -18.6665 -9.81906
rtoes -4.41199
lfemur -26.7308 2.42449 -14.4494
ltibia 51.2516
lfoot -5.58331 2.85647
ltoes -10.9131
377
root -0.887425 17.5425 40.3543 -0.324666 -4.17212 -3.81159
lowerback 6.38998 0.857316 3.48774
upperback 0.792604 1.46686 2.84721
thorax -2.7532 0.704945 0.853109
lowerneck -13.7388 -2.38641 -9.59618
upperneck 24.9713 -2.31971 5.07409
head 10.4367 -1.38213 3.13956
rclavicle -8.19987e-015 -1.51076e-014
rhumerus -25.4627 -4.73645 -78.9893
rradius 32.5731
rwrist 2.21764
rhand -14.5052 17.5085
rfingers 7.12502
rthumb 11.642 -12.1481
lclavicle -8.19987e-015 -1.51076e-014
lhumerus -36.4462 8.54256 86.9955
lradius 25.5705
lwrist -15.7651
lhand -15.2668 25.9615
lfingers 7.12502
lthumb 10.9074 55.6582
rfemur -4.21185 4.35607 30.0085
rtibia 30.5903
rfoot -18.8579 -10.0514
rtoes -5.41379
lfemur -27.2688 2.0972 -14.3998
ltibia 48.8293
lfoot -5.41772 4.0133
ltoes -10.266
378
root -0.880018 17.5337 40.5224 -0.128803 -4.26756 -3.90505
lowerback 6.41529 0.87338 3.62925
upperback 0.730373 1.50174 2.82697
thorax -2.82722 0.719276 0.749287
lowerneck -13.7612 -2.41739 -9.44521
upperneck 24.935 -2.34805 4.88385
head 10.4266 -1.40213 3.04043
rclavicle 5.81445e-015 8.34896e-015
rhumerus -24.9295 -4.07081 -79.1648
rradius 33.1777
rwrist 1.90156
rhand -14.6343 17.3575
rfingers 7.12502
rthumb 11.5175 -12.306
lclavicle 5.81445e-015 8.34896e-015
lhumerus -36.5827 9.10547 86.8982
lradius 25.0062
lwrist -16.3911
lhand -14.5823 26.3975
lfingers 7.12502
lthumb 11.5676 56.0583
rfemur -3.71051 4.54101 30.134
rtibia 30.328
rfoot -19.1817 -10.0992
rtoes -4.2783
lfemur -27.4996 1.71521 -14.221
ltibia 46.1117
lfoot -5.14001 5.18243
ltoes -10.896
379
root -0.877308 17.5329 40.7051 -0.100989 -4.54211 -3.86132
lowerback 6.20171 1.00234 3.61858
upperback 1.05486 1.64427 2.8077
thorax -2.37022 0.798057 0.730114
lowerneck -14.3708 -2.48475 -9.35583
upperneck 24.7704 -2.34385 4.67621
head 10.4823 -1.40609 2.94625
rclavicle -1.64494e-014 1.03368e-014
rhumerus -23.8899 -3.53176 -79.2401
rradius 33.7627
rwrist 1.26717
rhand -14.5782 17.4339
rfingers 7.12502
rthumb 11.5716 -12.2267
lclavicle -1.64494e-014 1.03368e-014
lhumerus -36.1821 9.52401 87.0509
lradius 24.4602
lwrist -16.8974
lhand -14.2904 26.926
lfingers 7.12502
lthumb 11.8491 56.5707
rfemur -2.96716 4.78883 30.1352
rtibia 30.057
rfoot -19.722 -10.1826
rtoes -3.35592
lfemur -27.3479 1.36977 -14.1065
ltibia 43.1715
lfoot -5.28726 6.25679
ltoes -11.0092
380
root -0.878745 17.5229 40.8768 0.0839652 -4.83032 -3.90368
lowerback 6.02809 1.13875 3.58699
upperback 1.23663 1.80567 2.83193
thorax -2.08526 0.883424 0.765736
lowerneck -14.8395 -2.49906 -9.28516
upperneck 24.6671 -2.31409 4.60958
head 10.5316 -1.3866 2.91129
rclavicle 5.46658e-016 -5.1684e-015
rhumerus -22.9906 -2.93963 -79.2694
rradius 34.3296
rwrist 0.703688
rhand -14.6061 17.5524
rfingers 7.12502
rthumb 11.5446 -12.1096
lclavicle 5.46658e-016 -5.1684e-015
lhumerus -36.1405 9.81475 87.2762
lradius 24.2772
lwrist -16.9661
lhand -15.0857 26.848
lfingers 7.12502
lthumb 11.0821 56.5354
rfemur -2.37378 5.23676 30.3159
rtibia 29.7252
rfoot -20.0307 -10.7018
rtoes -4.04564
lfemur -27.3987 0.948465 -13.8118
ltibia 40.1092
lfoot -5.26067 7.24872
ltoes -11.2628
381
root -0.876913 17.5034 41.0318 0.351424 -5.10977 -4.23008
lowerback 6.21259 1.23019 3.87942
upperback 1.08948 1.96451 2.86482
thorax -2.32961 0.956152 0.618233
lowerneck -14.7114 -2.4585 -9.19614
upperneck 24.4839 -2.30697 4.67396
head 10.4374 -1.3656 2.91753
rclavicle -1.65985e-014 1.51076e-014
rhumerus -22.6633 -2.4335 -79.34
rradius 35.0565
rwrist 0.530819
rhand -14.6955 17.3273
rfingers 7.12502
rthumb 11.4584 -12.3395
lclavicle -1.65985e-014 1.51076e-014
lhumerus -36.4465 10.0147 87.2751
lradius 24.0028
lwrist -16.8262
lhand -15.1779 26.2697
lfingers 7.12502
lthumb 10.9932 55.9619
rfemur -1.8661 5.61434 30.7831
rtibia 29.3482
rfoot -20.0266 -11.16
rtoes -5.25165
lfemur -27.5521 0.547827 -13.1586
ltibia 36.9495
lfoot -4.38553 7.829
ltoes -9.40873
